<svg width="42" height="44" viewBox="0 0 42 44" fill="none" xmlns="http://www.w3.org/2000/svg">
  <defs>
    <linearGradient id="paint0_linear" x1="6.5" y1="3" x2="33.5" y2="41" gradientUnits="userSpaceOnUse">
      <stop stop-color="#8B5CF6" />
      <stop offset="1" stop-color="#3B82F6" />
    </linearGradient>
  </defs>
  <path
    fill-rule="evenodd"
    clip-rule="evenodd"
    d="M0 20.2745C2.51661 17.4706 6.6745 11.6471 8.09693 9.16667L14.7714 7.0098L20.68 0L30.4182 11.4314L35.8891 12.7255C36.9833 13.5882 39.7187 19.0882 41.0317 20.0588L35.7797 26.4216C27.2451 22.5392 16.5221 27.9314 8.86286 27.2843C13.8961 35.2647 23.4154 22.8627 33.2631 29.2255L28.2298 35.049C21.4459 33.7549 21.993 35.5882 17.0692 36.1275C17.0692 36.3863 19.2576 38.9673 20.3517 40.2255L22.9778 37.9608L25.6038 37.6373L20.3517 43.8922C17.7987 41.232 12.5831 35.5882 12.1454 34.2941C20.8606 34.2941 19.5617 31.9538 26.7004 32.4127C27.1113 32.4392 27.5159 32.283 27.7905 31.9805L29.2146 30.4118C21.7742 26.4216 12.5831 39.902 2.84487 23.9412C16.6315 26.8529 21.8836 21.1536 35.1232 23.402L36.9833 21.2451C25.6038 15.9608 17.0692 27.3922 0 20.2745ZM15.6468 7.98039L20.68 1.94118L22.3213 11.1078L15.2091 17.7941L24.2908 13.8039L29.9805 18.2255C19.9141 18.3333 14.662 22.1078 2.84487 18.7647L9.08169 10.0294L15.6468 7.98039Z"
    fill="url(#paint0_linear)"
  />
  <path
    fill-rule="evenodd"
    clip-rule="evenodd"
    d="M0 20.2745C2.51661 17.4706 6.6745 11.6471 8.09693 9.16667L14.7714 7.0098L20.68 0L30.4182 11.4314L35.8891 12.7255C36.9833 13.5882 39.7187 19.0882 41.0317 20.0588L35.7797 26.4216C27.2451 22.5392 16.5221 27.9314 8.86286 27.2843C13.8961 35.2647 23.4154 22.8627 33.2631 29.2255L28.2298 35.049C21.4459 33.7549 21.993 35.5882 17.0692 36.1275C17.0692 36.3863 19.2576 38.9673 20.3517 40.2255L22.9778 37.9608L25.6038 37.6373L20.3517 43.8922C17.7987 41.232 12.5831 35.5882 12.1454 34.2941C20.8606 34.2941 19.5617 31.9538 26.7004 32.4127C27.1113 32.4392 27.5159 32.283 27.7905 31.9805L29.2146 30.4118C21.7742 26.4216 12.5831 39.902 2.84487 23.9412C16.6315 26.8529 21.8836 21.1536 35.1232 23.402L36.9833 21.2451C25.6038 15.9608 17.0692 27.3922 0 20.2745ZM15.6468 7.98039L20.68 1.94118L22.3213 11.1078L15.2091 17.7941L24.2908 13.8039L29.9805 18.2255C19.9141 18.3333 14.662 22.1078 2.84487 18.7647L9.08169 10.0294L15.6468 7.98039Z"
    fill="#0F1221"
    fill-opacity="0.08"
  />
</svg>
