<svg
    xmlns="http://www.w3.org/2000/svg"
    viewBox="0 0 512 512"
    width="1em"
    height="1em"
    role="img"
    aria-label="Icon"
    focusable="false"
    shape-rendering="geometricPrecision"
>
    <path
        fill="#F5C542"
        d="M151.4 1.9c-5.3 2.4-7.7 6.5-10.8 18.4C126 76.2 82.4 119.8 26.3 134.6c-5.4 1.4-11.3 3.5-13.1 4.7-6.9 4.6-9.4 15.2-5 21.7 3.6 5.2 6.4 6.7 18.8 10 38.9 10.5 71.2 34 93.2 68 9.6 14.7 16.4 30.6 20.9 48.4 3.2 12.6 8.2 17.8 17.4 17.8 8.8 0 14.3-5.3 17-16.4 2.4-10 8-25.9 11.7-33.2 19.3-38.6 54.3-69.5 92.3-81.3 5.5-1.8 13.3-4.2 17.4-5.5 6-1.8 8-3 10.4-6 5.6-7 4.4-17.7-2.5-22.8-1.6-1.2-7-3.3-11.9-4.6-4.8-1.3-13.2-4-18.6-6-48.2-17.8-85.5-59.8-98.3-110.7-2.6-9.9-5.2-14.1-10.6-16.7-5-2.5-8.7-2.5-14-.1z"
    />
    <path
        fill="#E58EFF"
        d="M393.6 165.5c-6.6 2.3-9.5 6.1-12.3 16.1-10.1 36.4-36.1 62.7-71.8 72.9-4.9 1.4-10.1 3.4-11.5 4.4-9.5 6.9-9.4 21.1.3 26.9 1.8 1.1 7.4 3.1 12.6 4.6 33.6 9.5 59.6 35.7 69.6 70.3 3.2 11 5.1 14.2 10.1 17 4.8 2.8 10.3 2.9 15.3.3 4.9-2.5 7.3-6.4 10.1-16.5 9.2-34.1 36.4-61.6 70.3-71.1 5-1.5 10.7-3.6 12.5-4.8 6.4-4 9.1-14 5.7-20.5-2.5-4.9-6.9-7.7-15.7-10.1-18.2-4.8-38.8-17.3-50.1-30.3-11.4-13.1-17.7-24.7-22.6-41.6-1.8-6.2-3.9-11.3-5.3-12.8-4.8-5.1-11.3-7-17.2-4.8z"
    />
    <path
        fill="#66D2D6"
        d="M192.4 337.7c-1.2.2-4 2-6.3 3.9-3.3 2.9-4.4 4.8-6.1 10.7-8.3 29-26.7 47.4-55.7 55.7-6 1.7-7.8 2.8-10.7 6.2-6.1 7.1-5.7 15.9 1 22.2 1.8 1.6 6.2 3.7 11.4 5.3 27 8.2 44.6 25.6 53 52.4 4 12.5 9.4 17.9 17.8 17.9 8.1-.1 14.4-6.6 17.2-17.5 3.4-13.5 13.5-28.9 25.3-38.5 6.8-5.6 19.3-12 27.2-14 14-3.5 20.5-13 16.1-23.4-2.3-5.5-6.4-8.5-15.6-11.3-14.5-4.4-25.7-11.1-34.5-20.4-9.4-10-13.7-17.4-18.4-31.9-4.8-14.6-10.8-19.5-21.7-17.3z"
    />
</svg>
