<svg xmlns="http://www.w3.org/2000/svg" viewBox="0 0 452 468" aria-hidden="true">
  <polygon fill="#dadee5" points="226.76,56.46 383.37,147.36 383.37,319.09 337.41,297.64 337.41,169.87 226.76,106.55 116.21,171 116.21,298.77 226.76,362.09 226.76,418.3 70.08,327.4 70.08,146.49"/>

  <g fill="#939395">
    <polygon points="226.76,239.38 155.61,195.46 226.76,154.27"/>
    <polygon points="226.76,154.27 297.77,195.12 226.76,239.38"/>
  </g>

  <polygon fill="#767677" points="155.61,195.46 226.76,239.38 226.76,318.36 155.8,277.51"/>

  <g fill="#00b8b9">
    <polygon points="226.76,362.09 337.41,297.64 383.37,319.09 226.76,418.3"/>
    <polygon points="297.77,277.17 297.77,195.12 226.76,239.38 226.76,318.36"/>
  </g>
</svg>
