<?xml version="1.0" encoding="utf-8"?>
<!-- Generator: Adobe Illustrator 26.0.1, SVG Export Plug-In . SVG Version: 6.00 Build 0)  -->
<svg version="1.1" id="Шар_1" xmlns="http://www.w3.org/2000/svg" xmlns:xlink="http://www.w3.org/1999/xlink" x="0px" y="0px"
	 viewBox="0 0 452 468" style="enable-background:new 0 0 452 468;" xml:space="preserve">
<style type="text/css">
	.st0{fill:#E1E0E9;}
	.st1{fill:#939395;}
	.st2{fill:#7D9FB2;}
	.st3{fill:#767677;}
</style>
<polygon class="st0" points="226.76,56.46 383.37,147.36 383.37,319.09 337.41,297.64 337.41,169.87 226.76,106.55 116.21,171 
	116.21,298.77 226.76,362.09 226.76,418.3 70.08,327.4 70.08,146.49 "/>
<polygon class="st1" points="226.76,239.38 155.61,195.46 226.76,154.27 "/>
<polygon class="st2" points="226.76,362.09 337.41,297.64 383.37,319.09 226.76,418.3 "/>
<polygon class="st2" points="297.77,277.17 297.77,195.12 226.76,239.38 226.76,318.36 "/>
<polygon class="st3" points="155.61,195.46 226.76,239.38 226.76,318.36 155.8,277.51 "/>
<polygon class="st1" points="226.76,154.27 297.77,195.12 226.76,239.38 "/>
</svg>
